<?xml version="1.0" standalone="no"?>
<!DOCTYPE svg PUBLIC "-//W3C//DTD SVG 20010904//EN"
 "http://www.w3.org/TR/2001/REC-SVG-20010904/DTD/svg10.dtd">
<svg version="1.0" xmlns="http://www.w3.org/2000/svg"
 width="225.000000pt" height="225.000000pt" viewBox="0 0 225.000000 225.000000"
 preserveAspectRatio="xMidYMid meet">

<g transform="translate(0.000000,225.000000) scale(0.100000,-0.100000)"
fill="#f05454" stroke="none">
<path d="M532 2104 c-5 -9 -7 -24 -5 -33 2 -9 130 -137 284 -286 l279 -270 0
-243 0 -243 -33 28 c-19 15 -135 121 -258 236 -123 114 -228 207 -234 207 -40
-1 -40 -2 -43 -450 -2 -298 1 -436 8 -451 8 -14 19 -19 38 -17 l27 3 5 391 5
390 243 -224 242 -224 0 -382 c0 -284 3 -385 12 -394 20 -20 48 -14 58 14 6
15 10 180 10 397 l0 372 231 215 c127 118 235 216 240 218 5 2 10 -163 11
-385 l3 -388 30 0 30 0 0 449 c0 404 -2 450 -16 459 -22 14 -26 10 -301 -249
l-228 -215 0 243 0 244 275 274 c151 151 275 282 275 290 0 20 -19 40 -38 40
-8 0 -136 -120 -284 -267 l-269 -266 -97 94 c-53 52 -176 172 -273 267 -176
172 -206 193 -227 156z"/>
</g>
</svg>
